<?xml version="1.0" encoding="utf-8"?>
<!-- Generator: Adobe Illustrator 15.0.2, SVG Export Plug-In . SVG Version: 6.00 Build 0)  -->
<!DOCTYPE svg PUBLIC "-//W3C//DTD SVG 1.1//EN" "http://www.w3.org/Graphics/SVG/1.1/DTD/svg11.dtd">
<svg version="1.1" xmlns="http://www.w3.org/2000/svg" xmlns:xlink="http://www.w3.org/1999/xlink" x="0px" y="0px" width="612px"
	 height="612px" viewBox="-296 -296 612 612" enable-background="new -296 -296 612 612" xml:space="preserve">
<g id="Слой_2">
	<rect x="-296" y="-296" fill="#F5F5F5" stroke="#F5F5F5" stroke-width="28" width="612" height="612"/>
	<rect x="-296" y="-296" fill="#C4C4C4" fill-opacity="0.1" width="612" height="612"/>
</g>
<g id="Слой_1">
	<path fill="none" stroke="#3D505A" stroke-width="30" d="M87.028-65.469c0,61.625-34.336,119.198-78.649,114.479
		c-40.541-4.286-76.496-44.836-76.496-106.45"/>
	<path fill="#3D505A" d="M52.447-80.411l1.804,12.471l0.656-0.103l0.657-0.153L52.447-80.411z M61.349-167.695l6.891-10.553
		l-0.697-0.451l-0.778-0.369L61.349-167.695z M-62.229-140.6l8.173,9.589l1.621-1.375l1.066-1.825L-62.229-140.6z M92.361-63.962
		l-8.081,9.661L92.361-63.962z M95.929-65.376l12.533,1.292L95.929-65.376z M-28.899-92.493l-12.194-3.189L-28.899-92.493z
		 M-73.654-48.805l-3.425-12.122L-73.654-48.805z M-70.228-36.672c19.065-5.385,31.678-13.854,40.037-24.068
		c8.224-10.051,11.435-20.758,13.475-28.552l-24.376-6.389c-1.825,6.963-3.938,13.28-8.604,18.982
		c-4.523,5.528-12.358,11.527-27.382,15.772L-70.228-36.672z M-34.417-85.508C-22.572-69.951,2.656-60.475,54.251-67.94
		l-3.608-24.952c-49.206,7.128-61.851-3.743-65-7.876L-34.417-85.508z M55.564-68.196c-0.084,0.02,0.738-0.175,2.79,0.184
		c1.948,0.338,4.451,1.056,7.384,2.266c5.865,2.42,12.513,6.4,18.542,11.445l16.181-19.322
		c-7.854-6.583-16.714-11.958-25.124-15.424c-7.774-3.209-17.475-5.743-25.967-3.59L55.564-68.196z M108.462-64.084
		c3.301-32.078,1.373-55.676-5.847-74.003c-7.424-18.808-19.853-30.653-34.376-40.16l-13.782,21.096
		c11.712,7.671,19.792,15.834,24.694,28.304c5.129,12.963,7.344,31.937,4.225,62.178L108.462-64.084z M66.764-179.068
		c-29.064-13.896-57.308-17.383-81.971-11.363c-24.756,6.04-44.951,21.444-57.882,43.442l21.721,12.778
		c9.609-16.337,24.223-27.372,42.14-31.741c17.998-4.389,40.281-2.256,65.123,9.62L66.764-179.068z M-70.413-150.188
		c-17.722,15.126-21.547,37.934-21.814,56.281c-0.144,9.435,0.647,18.542,1.457,26.111c0.852,8.091,1.59,13.433,1.681,17.126
		l25.199-0.677c-0.134-5.016-1.108-12.358-1.815-19.116c-0.78-7.261-1.436-15.167-1.323-23.075
		c0.247-16.356,3.794-29.639,12.972-37.472L-70.413-150.188z M84.28-54.301c8.778,7.343,22.93,2.358,24.182-9.784L83.376-66.67
		c0.904-8.716,10.954-12.091,17.085-6.953L84.28-54.301z M-16.716-89.292c-1.342,5.147-5.681,7.281-8.542,7.662
		c-2.759,0.358-6.553-0.462-9.158-3.877l20.059-15.26c-3.804-4.995-9.609-6.45-14.192-5.855
		c-4.697,0.626-10.687,3.867-12.543,10.942L-16.716-89.292z M-77.079-60.927c7.436-2.102,13.034,3.815,13.189,9.58l-25.199,0.677
		c0.237,8.676,8.625,16.89,18.861,13.998L-77.079-60.927z"/>
	<path fill="none" stroke="#3D505A" stroke-width="30" d="M-142.446,125.804v66.454c0,11.611,9.403,21.004,21.001,21.004h262.887
		c11.589,0,21.003-9.393,21.003-21.004v-66.454c0-9.415-6.256-17.68-15.301-20.224l-62.64-17.701
		c-8.184-2.317-16.963,0.556-22.214,7.241l-35.771,45.473c-8.42,10.685-24.623,10.685-33.033,0L-42.293,95.12
		c-5.261-6.686-14.029-9.559-22.212-7.241l-62.65,17.701C-136.201,108.124-142.446,116.389-142.446,125.804z"/>
	<path fill="none" stroke="#3D505A" stroke-width="30" d="M-55.522,85.438c9.589-2.707,31.721-15.218,31.721-50.538"/>
	<path fill="none" stroke="#3D505A" stroke-width="20" d="M78.085,86.055c-9.517-3.076-31.34-19.896-33.186-53.041"/>
</g>
</svg>
